<svg width="67" height="46" viewBox="0 0 67 46" fill="none" xmlns="http://www.w3.org/2000/svg">
<path d="M67 33.5C67 52.0015 67.0001 43 33.5 43C-6.10352e-05 43 0 52.0015 0 33.5C0 14.9985 14.9985 0 33.5 0C52.0015 0 67 14.9985 67 33.5Z" fill="white"/>
<path d="M66.5 33.5C66.5 35.8167 66.4999 37.6873 66.435 39.1987C66.3699 40.7155 66.2406 41.8301 65.9974 42.647C65.7579 43.4512 65.4213 43.9232 64.9643 44.215C64.4909 44.5173 63.8163 44.6731 62.8051 44.6881C61.7967 44.7031 60.5194 44.5786 58.8827 44.3763C58.266 44.3 57.5967 44.2125 56.8745 44.1181C55.6989 43.9645 54.383 43.7925 52.9257 43.6208C48.2001 43.0643 41.8988 42.5 33.5 42.5C25.1012 42.5 18.7999 43.0643 14.0743 43.6208C12.617 43.7925 11.3011 43.9645 10.1255 44.1181C9.40331 44.2125 8.73403 44.3 8.11734 44.3763C6.48055 44.5786 5.20326 44.7031 4.19492 44.6881C3.18374 44.6731 2.50913 44.5173 2.03565 44.215C1.57865 43.9232 1.24208 43.4512 1.00264 42.647C0.759399 41.8301 0.630063 40.7155 0.564967 39.1987C0.500103 37.6873 0.5 35.8167 0.5 33.5C0.5 15.2746 15.2746 0.5 33.5 0.5C51.7254 0.5 66.5 15.2746 66.5 33.5Z" stroke="black" stroke-opacity="0.82"/>
<path d="M42.8138 24.7612L34.4901 32.804C34.3601 32.9295 34.1838 33 33.9999 33C33.8161 33 33.6398 32.9295 33.5098 32.804L25.1861 24.7612C25.0636 24.6342 24.9969 24.4661 25 24.2925C25.0032 24.1188 25.076 23.9532 25.2031 23.8304C25.3302 23.7076 25.5016 23.6372 25.6813 23.6342C25.861 23.6311 26.035 23.6956 26.1664 23.8139L33.3063 30.7117V12.6702C33.3063 12.4925 33.3794 12.322 33.5095 12.1963C33.6395 12.0706 33.816 12 33.9999 12C34.1839 12 34.3603 12.0706 34.4904 12.1963C34.6205 12.322 34.6936 12.4925 34.6936 12.6702V30.7117L41.8334 23.8139C41.9649 23.6956 42.1388 23.6311 42.3185 23.6342C42.4982 23.6372 42.6697 23.7076 42.7968 23.8304C42.9239 23.9532 42.9967 24.1188 42.9998 24.2925C43.003 24.4661 42.9363 24.6342 42.8138 24.7612Z" fill="black" fill-opacity="0.82"/>
</svg>
