<svg width="28" height="28" viewBox="0 0 28 28" fill="none" xmlns="http://www.w3.org/2000/svg">
<rect width="28" height="28" fill="#FFFDF2"/>
<rect x="1.52777" y="3.86111" width="24.1667" height="20.2778" rx="4.25" fill="white" stroke="black" stroke-width="1.5"/>
<path d="M14.7778 21.7815H11.6667C11.4604 21.7815 11.2626 21.6996 11.1167 21.5537C10.9708 21.4079 10.8889 21.21 10.8889 21.0038V16.1815H9.33333C9.12706 16.1815 8.92922 16.0996 8.78336 15.9537C8.6375 15.8079 8.55556 15.61 8.55556 15.4038V12.6038C8.55556 12.3975 8.6375 12.1997 8.78336 12.0538C8.92922 11.9079 9.12706 11.826 9.33333 11.826H10.8889V10.5038C10.9434 9.3187 11.4649 8.20344 12.3394 7.40182C13.2139 6.6002 14.3702 6.17744 15.5556 6.22598H17.8889C18.0952 6.22598 18.293 6.30793 18.4389 6.45379C18.5847 6.59965 18.6667 6.79748 18.6667 7.00376V9.80376C18.6667 10.01 18.5847 10.2079 18.4389 10.3537C18.293 10.4996 18.0952 10.5815 17.8889 10.5815H15.5556V11.826H17.8889C18.009 11.8251 18.1277 11.852 18.2356 11.9046C18.3436 11.9572 18.4379 12.0342 18.5111 12.1293C18.5836 12.2259 18.6325 12.3381 18.6541 12.4569C18.6757 12.5756 18.6694 12.6978 18.6356 12.8138L17.8578 15.6138C17.8107 15.782 17.7084 15.9295 17.5673 16.0325C17.4262 16.1355 17.2546 16.188 17.08 16.1815H15.5556V21.0038C15.5556 21.21 15.4736 21.4079 15.3278 21.5537C15.1819 21.6996 14.9841 21.7815 14.7778 21.7815ZM12.4444 20.226H14V15.4038C14 15.1975 14.0819 14.9997 14.2278 14.8538C14.3737 14.7079 14.5715 14.626 14.7778 14.626H16.52L16.8622 13.3815H14.7778C14.5715 13.3815 14.3737 13.2996 14.2278 13.1537C14.0819 13.0079 14 12.81 14 12.6038V10.5038C14.02 10.1048 14.1926 9.72887 14.4822 9.45376C14.7718 9.17865 15.1561 9.02548 15.5556 9.02598H17.1111V7.78154H15.5556C14.7831 7.73448 14.0232 7.9939 13.4408 8.50352C12.8583 9.01315 12.5003 9.73187 12.4444 10.5038V12.6038C12.4444 12.81 12.3625 13.0079 12.2166 13.1537C12.0708 13.2996 11.8729 13.3815 11.6667 13.3815H10.1111V14.626H11.6667C11.8729 14.626 12.0708 14.7079 12.2166 14.8538C12.3625 14.9997 12.4444 15.1975 12.4444 15.4038V20.226Z" fill="black"/>
</svg>
