<svg width="28" height="28" viewBox="0 0 28 28" fill="none" xmlns="http://www.w3.org/2000/svg">
<rect width="28" height="28" fill="#FFFDF2"/>
<path d="M14 3.11111C11.045 3.11111 10.6734 3.12472 9.51242 3.17644C8.35139 3.23089 7.56059 3.41328 6.86778 3.68278C6.14108 3.95611 5.48284 4.38487 4.93909 4.93908C4.38522 5.48311 3.95651 6.14127 3.68278 6.86778C3.41328 7.55922 3.22953 8.35139 3.17645 9.50833C3.12473 10.6721 3.11111 11.0423 3.11111 14.0014C3.11111 16.9577 3.12473 17.3279 3.17645 18.4889C3.23089 19.6486 3.41328 20.4394 3.68278 21.1322C3.96181 21.8482 4.33339 22.4552 4.93909 23.0609C5.54342 23.6666 6.15048 24.0396 6.86642 24.3172C7.56059 24.5867 8.35003 24.7705 9.5097 24.8236C10.6721 24.8753 11.0423 24.8889 14 24.8889C16.9577 24.8889 17.3266 24.8753 18.4889 24.8236C19.6473 24.7691 20.4408 24.5867 21.1336 24.3172C21.8598 24.0437 22.5176 23.615 23.0609 23.0609C23.6666 22.4552 24.0382 21.8482 24.3172 21.1322C24.5854 20.4394 24.7691 19.6486 24.8236 18.4889C24.8753 17.3279 24.8889 16.9577 24.8889 14C24.8889 11.0423 24.8753 10.6721 24.8236 9.50969C24.7691 8.35139 24.5854 7.55922 24.3172 6.86778C24.0435 6.14125 23.6148 5.48309 23.0609 4.93908C22.5173 4.38467 21.8591 3.95588 21.1322 3.68278C20.4381 3.41328 19.6459 3.22953 18.4876 3.17644C17.3252 3.12472 16.9563 3.11111 13.9973 3.11111H14ZM13.0241 5.07383H14.0014C16.9087 5.07383 17.2531 5.08336 18.4005 5.13644C19.4621 5.18408 20.0393 5.36239 20.4231 5.51075C20.9308 5.70811 21.2942 5.94494 21.6753 6.32606C22.0564 6.70717 22.2919 7.06922 22.4893 7.57828C22.639 7.96075 22.8159 8.53786 22.8636 9.59953C22.9166 10.7469 22.9275 11.0913 22.9275 13.9973C22.9275 16.9032 22.9166 17.249 22.8636 18.3964C22.8159 19.4581 22.6376 20.0338 22.4893 20.4176C22.3147 20.8904 22.036 21.3179 21.6739 21.6685C21.2928 22.0496 20.9308 22.2851 20.4217 22.4824C20.0406 22.6322 19.4635 22.8091 18.4005 22.8581C17.2531 22.9098 16.9087 22.9221 14.0014 22.9221C11.094 22.9221 10.7483 22.9098 9.60089 22.8581C8.53923 22.8091 7.96348 22.6322 7.57964 22.4824C7.10665 22.3081 6.67876 22.03 6.32742 21.6685C5.96503 21.3174 5.68596 20.8895 5.51075 20.4163C5.36239 20.0338 5.18409 19.4567 5.13645 18.395C5.08473 17.2476 5.07384 16.9032 5.07384 13.9946C5.07384 11.0872 5.08473 10.7442 5.13645 9.59681C5.18545 8.53514 5.36239 7.95803 5.51211 7.57419C5.70948 7.0665 5.94631 6.70308 6.32742 6.32197C6.70853 5.94086 7.07059 5.70539 7.57964 5.50803C7.96348 5.35831 8.53923 5.18136 9.60089 5.13236C10.6054 5.08608 10.9947 5.07247 13.0241 5.07111V5.07383ZM19.8133 6.88139C19.6417 6.88139 19.4718 6.91519 19.3133 6.98085C19.1547 7.04652 19.0107 7.14277 18.8894 7.2641C18.768 7.38544 18.6718 7.52948 18.6061 7.68802C18.5404 7.84655 18.5066 8.01646 18.5066 8.18806C18.5066 8.35965 18.5404 8.52956 18.6061 8.68809C18.6718 8.84663 18.768 8.99067 18.8894 9.11201C19.0107 9.23334 19.1547 9.32959 19.3133 9.39526C19.4718 9.46092 19.6417 9.49472 19.8133 9.49472C20.1599 9.49472 20.4922 9.35706 20.7373 9.11201C20.9823 8.86696 21.12 8.5346 21.12 8.18806C21.12 7.84151 20.9823 7.50915 20.7373 7.2641C20.4922 7.01905 20.1599 6.88139 19.8133 6.88139ZM14.0014 8.40856C13.2597 8.39698 12.5231 8.53308 11.8344 8.80891C11.1458 9.08475 10.519 9.49482 9.99038 10.0152C9.46177 10.5357 9.04197 11.156 8.75543 11.8403C8.46888 12.5245 8.32131 13.2589 8.32131 14.0007C8.32131 14.7425 8.46888 15.4769 8.75543 16.1611C9.04197 16.8453 9.46177 17.4657 9.99038 17.9861C10.519 18.5065 11.1458 18.9166 11.8344 19.1924C12.5231 19.4683 13.2597 19.6044 14.0014 19.5928C15.4694 19.5699 16.8695 18.9707 17.8996 17.9244C18.9296 16.8782 19.5069 15.4689 19.5069 14.0007C19.5069 12.5325 18.9296 11.1232 17.8996 10.0769C16.8695 9.0307 15.4694 8.43146 14.0014 8.40856ZM14.0014 10.3699C14.4781 10.3699 14.9501 10.4638 15.3905 10.6462C15.831 10.8287 16.2311 11.0961 16.5682 11.4331C16.9053 11.7702 17.1727 12.1704 17.3551 12.6108C17.5376 13.0512 17.6314 13.5233 17.6314 14C17.6314 14.4767 17.5376 14.9488 17.3551 15.3892C17.1727 15.8296 16.9053 16.2298 16.5682 16.5669C16.2311 16.9039 15.831 17.1713 15.3905 17.3538C14.9501 17.5362 14.4781 17.6301 14.0014 17.6301C13.0386 17.6301 12.1153 17.2476 11.4345 16.5669C10.7537 15.8861 10.3713 14.9628 10.3713 14C10.3713 13.0372 10.7537 12.1139 11.4345 11.4331C12.1153 10.7524 13.0386 10.3699 14.0014 10.3699Z" fill="black"/>
</svg>
