<svg width="165" height="35" viewBox="0 0 165 35" fill="none" xmlns="http://www.w3.org/2000/svg">
<path d="M47.3068 24H42.598V9.45455H47.456C48.8812 9.45455 50.1051 9.74574 51.1278 10.3281C52.1506 10.9058 52.9342 11.7367 53.4787 12.821C54.0279 13.9006 54.3026 15.1955 54.3026 16.706C54.3026 18.2211 54.0256 19.5232 53.4716 20.6122C52.9223 21.7012 52.1269 22.5393 51.0852 23.1264C50.0436 23.7088 48.7841 24 47.3068 24ZM44.7926 22.0824H47.1861C48.294 22.0824 49.215 21.8741 49.9489 21.4574C50.6828 21.036 51.232 20.4276 51.5966 19.6321C51.9612 18.8319 52.1435 17.8565 52.1435 16.706C52.1435 15.5649 51.9612 14.5966 51.5966 13.8011C51.2367 13.0057 50.6993 12.402 49.9844 11.9901C49.2694 11.5781 48.3816 11.3722 47.321 11.3722H44.7926V22.0824ZM57.0316 24V9.45455H66.1509V11.3438H59.2262V15.7756H65.6751V17.6577H59.2262V22.1108H66.2362V24H57.0316ZM80.8224 9.45455V24H78.8054L71.4119 13.3324H71.277V24H69.0824V9.45455H71.1136L78.5142 20.1364H78.6491V9.45455H80.8224ZM83.3065 11.3438V9.45455H94.5636V11.3438H90.0252V24H87.8377V11.3438H83.3065ZM95.929 9.45455H98.4219L102.222 16.0668H102.378L106.178 9.45455H108.67L103.393 18.2898V24H101.206V18.2898L95.929 9.45455ZM110.943 11.3438V9.45455H122.2V11.3438H117.662V24H115.474V11.3438H110.943ZM124.688 24V9.45455H133.807V11.3438H126.882V15.7756H133.331V17.6577H126.882V22.1108H133.892V24H124.688ZM148.82 14.1847H146.604C146.518 13.7112 146.36 13.2945 146.128 12.9347C145.896 12.5748 145.612 12.2694 145.276 12.0185C144.939 11.7675 144.563 11.5781 144.146 11.4503C143.734 11.3224 143.296 11.2585 142.832 11.2585C141.994 11.2585 141.244 11.4692 140.581 11.8906C139.923 12.312 139.402 12.9299 139.018 13.7443C138.64 14.5587 138.45 15.553 138.45 16.7273C138.45 17.911 138.64 18.91 139.018 19.7244C139.402 20.5388 139.925 21.1544 140.588 21.571C141.251 21.9877 141.997 22.196 142.825 22.196C143.285 22.196 143.72 22.1345 144.132 22.0114C144.549 21.8835 144.925 21.6965 145.261 21.4503C145.598 21.2041 145.882 20.9034 146.114 20.5483C146.35 20.1884 146.514 19.7765 146.604 19.3125L148.82 19.3196C148.701 20.0346 148.472 20.6927 148.131 21.294C147.795 21.8906 147.361 22.4067 146.831 22.8423C146.305 23.2732 145.704 23.607 145.027 23.8438C144.35 24.0805 143.611 24.1989 142.811 24.1989C141.552 24.1989 140.429 23.9006 139.445 23.304C138.46 22.7027 137.683 21.8433 137.115 20.7259C136.552 19.6084 136.27 18.2756 136.27 16.7273C136.27 15.1742 136.554 13.8414 137.122 12.7287C137.69 11.6113 138.467 10.7543 139.452 10.1577C140.437 9.55634 141.556 9.25568 142.811 9.25568C143.583 9.25568 144.303 9.36695 144.97 9.58949C145.643 9.80729 146.246 10.1293 146.781 10.5554C147.316 10.9768 147.759 11.4929 148.109 12.1037C148.46 12.7098 148.696 13.4034 148.82 14.1847ZM151.446 24V9.45455H153.64V15.7756H160.892V9.45455H163.093V24H160.892V17.6577H153.64V24H151.446Z" fill="#404040"/>
<ellipse cx="16.6982" cy="17.2368" rx="16.6982" ry="17.2368" fill="#FF5928"/>
<path d="M24.3637 11.1164L24.3635 11.1161C24.0423 10.5173 23.5966 10.0119 23.0026 9.65885C22.4083 9.30571 21.6892 9.11841 20.8398 9.11841C20.0857 9.11841 19.4218 9.5014 18.8707 9.82634C18.826 9.8529 18.778 9.8821 18.7273 9.91291C18.5461 10.0231 18.331 10.1539 18.1138 10.2589C17.8281 10.397 17.4857 10.5189 17.1052 10.5189C16.7249 10.5189 16.3826 10.3974 16.0967 10.2593C15.8773 10.1534 15.6607 10.0214 15.4782 9.91021C15.4291 9.88031 15.3825 9.85191 15.339 9.82594C14.7902 9.50088 14.1257 9.11841 13.3705 9.11841C12.5224 9.11841 11.8032 9.3056 11.2078 9.65885L24.3637 11.1164ZM24.3637 11.1164C24.9996 12.3001 25.1618 13.8672 25.0678 15.4626M24.3637 11.1164L25.0678 15.4626M20.5769 24.9039L20.577 24.9039C21.2951 25.0048 22.0277 24.6571 22.6012 23.7976C23.1298 23.0037 23.697 21.7126 24.1548 20.2408L20.5769 24.9039ZM20.5769 24.9039C19.8934 24.8081 19.3359 24.3196 19.052 23.751L19.0519 23.7507M20.5769 24.9039L19.0519 23.7507M19.0519 23.7507C18.8872 23.4213 18.7632 23.0657 18.6356 22.6779C18.6196 22.6292 18.6035 22.5798 18.5872 22.5299C18.477 22.1928 18.3589 21.8312 18.2102 21.483L18.2098 21.4821M19.0519 23.7507L18.2098 21.4821M18.2098 21.4821C18.0436 21.0951 17.8657 20.7745 17.6693 20.5561L17.6693 20.5561M18.2098 21.4821L17.6693 20.5561M17.6693 20.5561L17.6675 20.5541M17.6693 20.5561L17.6675 20.5541M17.6675 20.5541C17.5856 20.4641 17.3935 20.2661 17.0986 20.269C16.807 20.2718 16.6194 20.4702 16.5427 20.5553M17.6675 20.5541L16.0002 21.483M16.0002 21.483L16.0006 21.4821C16.1665 21.0956 16.3446 20.7744 16.5427 20.5553M16.0002 21.483C15.8513 21.8316 15.7333 22.1935 15.6233 22.5308M16.0002 21.483L15.6233 22.5308M16.5427 20.5553C16.5428 20.5552 16.543 20.555 16.5431 20.5549L16.9136 20.8903L16.5422 20.5558C16.5424 20.5557 16.5425 20.5555 16.5427 20.5553ZM9.14347 15.4633L9.1435 15.4637C9.2377 17.0705 9.59672 18.7627 10.0555 20.2406L9.14347 15.4633ZM9.14347 15.4633C9.04856 13.8662 9.21075 12.3 9.84668 11.1164L9.84683 11.1161M9.14347 15.4633L9.84683 11.1161M9.84683 11.1161C10.168 10.5174 10.6136 10.012 11.2075 9.65901L9.84683 11.1161ZM25.0678 15.4626C24.9727 17.0705 24.6136 18.7627 24.1549 20.2406L25.0678 15.4626ZM15.6233 22.5308C15.6071 22.5805 15.591 22.6297 15.5751 22.6782M15.6233 22.5308L15.5751 22.6782M15.5751 22.6782C15.4478 23.0659 15.3241 23.4213 15.1596 23.7505M15.5751 22.6782L15.1596 23.7505M15.1596 23.7505C14.8745 24.3197 14.3168 24.8081 13.6343 24.9039M15.1596 23.7505L13.6343 24.9039M13.6343 24.9039C12.9151 25.0049 12.1826 24.657 11.6091 23.7976M13.6343 24.9039L11.6091 23.7976M11.6091 23.7976C11.0806 23.0037 10.5134 21.7126 10.0555 20.2408L11.6091 23.7976Z" fill="#FF5928" stroke="white"/>
<line x1="14.0247" y1="13.4919" x2="19.4021" y2="16.3593" stroke="white"/>
<line x1="13.5322" y1="16.7363" x2="18.9187" y2="13.5044" stroke="white"/>
</svg>
