<svg width="32" height="25" viewBox="0 0 32 25" fill="none" xmlns="http://www.w3.org/2000/svg">
<rect width="31.25" height="25" fill="#FFFDF2"/>
<path d="M6.87942 3.05771C10.6274 2.87109 13.5424 2.77778 15.625 2.77778C17.7076 2.77778 20.6239 2.87109 24.374 3.05839C25.3553 3.10737 26.2854 3.51079 26.9918 4.19376C27.6981 4.87672 28.1326 5.79281 28.2146 6.77191C28.3863 8.82341 28.4722 10.6301 28.4722 12.1928C28.4722 13.7743 28.3843 15.6061 28.2085 17.6887C28.1269 18.6565 27.7007 19.563 27.0075 20.2433C26.3143 20.9236 25.4 21.3327 24.4308 21.3961C21.225 21.6057 18.2898 21.7105 15.625 21.7105C12.9609 21.7105 10.0263 21.6057 6.82262 21.3961C5.85371 21.3327 4.93966 20.924 4.24648 20.2441C3.55329 19.5642 3.12694 18.6582 3.04486 17.6907C2.86703 15.5925 2.77777 13.7594 2.77777 12.1928C2.77777 10.6443 2.865 8.83693 3.0381 6.76988C3.12037 5.79102 3.55501 4.87526 4.26132 4.19257C4.96763 3.50989 5.89832 3.10665 6.87942 3.05771Z" stroke="black" stroke-opacity="0.69" stroke-width="1.5" stroke-linejoin="round"/>
<path d="M13.5979 9.27576V15.2234C13.5978 15.3281 13.6262 15.4309 13.6799 15.5208C13.7336 15.6107 13.8107 15.6844 13.9029 15.734C13.9952 15.7836 14.0992 15.8072 14.2038 15.8025C14.3084 15.7977 14.4098 15.7646 14.4972 15.7068L18.9579 12.7587C19.0376 12.7062 19.1031 12.6347 19.1485 12.5507C19.194 12.4667 19.218 12.3728 19.2184 12.2774C19.2188 12.1819 19.1956 12.0878 19.1508 12.0034C19.1061 11.919 19.0412 11.847 18.9619 11.7938L14.5005 8.79433C14.4134 8.73574 14.3119 8.70195 14.207 8.69658C14.1021 8.69121 13.9977 8.71445 13.9049 8.76384C13.8122 8.81322 13.7347 8.88687 13.6806 8.97692C13.6265 9.06698 13.5979 9.17004 13.5979 9.27509V9.27576Z" stroke="black" stroke-opacity="0.65" stroke-width="1.43" stroke-linejoin="round"/>
</svg>
