<svg width="35" height="36" viewBox="0 0 35 36" fill="none" xmlns="http://www.w3.org/2000/svg">
<ellipse cx="17.4146" cy="17.9764" rx="17.4146" ry="17.9764" fill="#FF5928"/>
<path d="M25.428 11.5832L25.4279 11.5829C25.0913 10.9555 24.6239 10.4253 24.0005 10.0548C23.377 9.68426 22.623 9.48819 21.734 9.48819C20.9408 9.48819 20.2436 9.89102 19.6693 10.2296C19.6225 10.2574 19.5722 10.288 19.5192 10.3202C19.3303 10.4351 19.1071 10.5708 18.8817 10.6797C18.5852 10.823 18.2315 10.9488 17.8391 10.9488C17.4471 10.9488 17.0934 10.8235 16.7967 10.6802C16.569 10.5702 16.3443 10.4333 16.1541 10.3174C16.1027 10.2861 16.0539 10.2564 16.0082 10.2291C15.4364 9.89041 14.7386 9.48819 13.9443 9.48819C13.0565 9.48819 12.3025 9.68416 11.6778 10.0548L25.428 11.5832ZM25.428 11.5832C26.094 12.8228 26.263 14.4619 26.1649 16.1273M25.428 11.5832L26.1649 16.1273M21.4569 25.9937L21.457 25.9938C22.2161 26.1004 22.9873 25.7319 23.5887 24.8308C24.1416 24.0005 24.7339 22.6517 25.2118 21.1157L21.4569 25.9937ZM21.4569 25.9937C20.7357 25.8926 20.1489 25.3777 19.8503 24.7796L19.8502 24.7794M21.4569 25.9937L19.8502 24.7794M19.8502 24.7794C19.6776 24.4343 19.548 24.0622 19.4149 23.6577C19.3982 23.6068 19.3813 23.5553 19.3643 23.5032C19.2494 23.1515 19.1265 22.7754 18.9718 22.4132L18.9714 22.4123M19.8502 24.7794L18.9714 22.4123M18.9714 22.4123C18.7985 22.0094 18.614 21.6776 18.4115 21.4524L18.4097 21.4505M18.9714 22.4123L18.4097 21.4505M18.4097 21.4505C18.3246 21.3569 18.13 21.1572 17.8325 21.1601C17.5389 21.163 17.3489 21.3624 17.2689 21.4512C17.0644 21.677 16.8797 22.0097 16.7069 22.4123L16.7065 22.4132M18.4097 21.4505L16.7065 22.4132M16.7065 22.4132C16.5516 22.7758 16.4288 23.1523 16.3141 23.5042M16.7065 22.4132L16.3141 23.5042M9.5144 16.128L9.51442 16.1284C9.61279 17.8064 9.98764 19.5728 10.4664 21.1154L9.5144 16.128ZM9.5144 16.128C9.41532 14.4609 9.58432 12.8228 10.2503 11.5832L10.2504 11.5829M9.5144 16.128L10.2504 11.5829M10.2504 11.5829C10.587 10.9556 11.0542 10.4254 11.6775 10.055L10.2504 11.5829ZM26.1649 16.1273C26.0655 17.8064 25.6906 19.5729 25.2119 21.1154L26.1649 16.1273ZM16.3141 23.5042C16.2972 23.556 16.2804 23.6073 16.2638 23.6579M16.3141 23.5042L16.2638 23.6579M16.2638 23.6579C16.131 24.0624 16.0016 24.4345 15.8291 24.7794M16.2638 23.6579L15.8291 24.7794M15.8291 24.7794C15.5293 25.3779 14.9424 25.8926 14.2224 25.9937M15.8291 24.7794L14.2224 25.9937M14.2224 25.9937C13.4621 26.1005 12.6909 25.7318 12.0896 24.8308C11.5367 24.0005 10.9443 22.6517 10.4665 21.1157L14.2224 25.9937Z" fill="#FF5928" stroke="white"/>
<line x1="14.6164" y1="14.0897" x2="20.2245" y2="17.0801" stroke="white"/>
<line x1="14.1239" y1="17.4728" x2="19.7415" y2="14.1022" stroke="white"/>
</svg>
