<svg width="151" height="42" viewBox="0 0 151 42" fill="none" xmlns="http://www.w3.org/2000/svg">
<rect width="150.579" height="41.8275" rx="20.9137" fill="#DBECF8"/>
<path d="M25.2665 25.4569H23.4029L27.5904 13.8205H29.6188L33.8063 25.4569H31.9426L28.6529 15.9342H28.5619L25.2665 25.4569ZM25.579 20.9001H31.6244V22.3773H25.579V20.9001ZM41.7395 16.8773C41.6789 16.3395 41.4289 15.9228 40.9895 15.6273C40.5501 15.3281 39.9971 15.1785 39.3304 15.1785C38.8531 15.1785 38.4403 15.2542 38.0918 15.4057C37.7433 15.5535 37.4725 15.758 37.2793 16.0194C37.0899 16.277 36.9952 16.5705 36.9952 16.9001C36.9952 17.1766 37.0596 17.4152 37.1884 17.616C37.3209 17.8167 37.4933 17.9853 37.7054 18.1217C37.9213 18.2542 38.1524 18.366 38.3986 18.4569C38.6448 18.544 38.8815 18.616 39.1088 18.6728L40.2452 18.9682C40.6164 19.0592 40.9971 19.1823 41.3872 19.3376C41.7774 19.4929 42.1391 19.6974 42.4725 19.9512C42.8058 20.205 43.0747 20.5194 43.2793 20.8944C43.4876 21.2694 43.5918 21.7182 43.5918 22.241C43.5918 22.9001 43.4213 23.4853 43.0804 23.9967C42.7433 24.508 42.2528 24.9114 41.6088 25.2069C40.9687 25.5023 40.194 25.6501 39.285 25.6501C38.4137 25.6501 37.66 25.5118 37.0236 25.2353C36.3872 24.9588 35.8891 24.5667 35.5293 24.0592C35.1694 23.5478 34.9706 22.9417 34.9327 22.241H36.694C36.7281 22.6614 36.8645 23.0118 37.1031 23.2921C37.3456 23.5686 37.6543 23.7751 38.0293 23.9114C38.4081 24.044 38.8228 24.1103 39.2736 24.1103C39.7698 24.1103 40.2111 24.0326 40.5975 23.8773C40.9876 23.7182 41.2944 23.4985 41.5179 23.2182C41.7414 22.9342 41.8531 22.6027 41.8531 22.2239C41.8531 21.8792 41.7547 21.597 41.5577 21.3773C41.3645 21.1576 41.1012 20.9758 40.7679 20.8319C40.4384 20.6879 40.0653 20.561 39.6486 20.4512L38.2736 20.0762C37.3418 19.8224 36.6031 19.4493 36.0577 18.9569C35.516 18.4645 35.2452 17.8129 35.2452 17.0023C35.2452 16.3319 35.427 15.7467 35.7906 15.2467C36.1543 14.7467 36.6467 14.3584 37.2679 14.0819C37.8891 13.8016 38.5899 13.6614 39.3702 13.6614C40.1581 13.6614 40.8531 13.7997 41.4554 14.0762C42.0615 14.3527 42.5387 14.7334 42.8872 15.2182C43.2357 15.6993 43.4175 16.2523 43.4327 16.8773H41.7395ZM52.0364 16.8773C51.9758 16.3395 51.7258 15.9228 51.2864 15.6273C50.847 15.3281 50.294 15.1785 49.6273 15.1785C49.15 15.1785 48.7371 15.2542 48.3886 15.4057C48.0402 15.5535 47.7693 15.758 47.5761 16.0194C47.3868 16.277 47.2921 16.5705 47.2921 16.9001C47.2921 17.1766 47.3565 17.4152 47.4852 17.616C47.6178 17.8167 47.7902 17.9853 48.0023 18.1217C48.2182 18.2542 48.4493 18.366 48.6955 18.4569C48.9417 18.544 49.1784 18.616 49.4057 18.6728L50.5421 18.9682C50.9133 19.0592 51.294 19.1823 51.6841 19.3376C52.0743 19.4929 52.436 19.6974 52.7693 19.9512C53.1027 20.205 53.3716 20.5194 53.5761 20.8944C53.7845 21.2694 53.8886 21.7182 53.8886 22.241C53.8886 22.9001 53.7182 23.4853 53.3773 23.9967C53.0402 24.508 52.5496 24.9114 51.9057 25.2069C51.2655 25.5023 50.4909 25.6501 49.5818 25.6501C48.7106 25.6501 47.9568 25.5118 47.3205 25.2353C46.6841 24.9588 46.186 24.5667 45.8261 24.0592C45.4663 23.5478 45.2674 22.9417 45.2296 22.241H46.9909C47.025 22.6614 47.1614 23.0118 47.4 23.2921C47.6424 23.5686 47.9511 23.7751 48.3261 23.9114C48.7049 24.044 49.1197 24.1103 49.5705 24.1103C50.0667 24.1103 50.508 24.0326 50.8943 23.8773C51.2845 23.7182 51.5913 23.4985 51.8148 23.2182C52.0383 22.9342 52.15 22.6027 52.15 22.2239C52.15 21.8792 52.0515 21.597 51.8546 21.3773C51.6614 21.1576 51.3981 20.9758 51.0648 20.8319C50.7352 20.6879 50.3621 20.561 49.9455 20.4512L48.5705 20.0762C47.6386 19.8224 46.9 19.4493 46.3546 18.9569C45.8129 18.4645 45.5421 17.8129 45.5421 17.0023C45.5421 16.3319 45.7239 15.7467 46.0875 15.2467C46.4511 14.7467 46.9436 14.3584 47.5648 14.0819C48.186 13.8016 48.8868 13.6614 49.6671 13.6614C50.4549 13.6614 51.15 13.7997 51.7523 14.0762C52.3583 14.3527 52.8356 14.7334 53.1841 15.2182C53.5326 15.6993 53.7144 16.2523 53.7296 16.8773H52.0364ZM57.7423 13.8205V25.4569H55.9867V13.8205H57.7423ZM66.6458 16.8773C66.5851 16.3395 66.3351 15.9228 65.8958 15.6273C65.4564 15.3281 64.9033 15.1785 64.2367 15.1785C63.7594 15.1785 63.3465 15.2542 62.998 15.4057C62.6495 15.5535 62.3787 15.758 62.1855 16.0194C61.9961 16.277 61.9014 16.5705 61.9014 16.9001C61.9014 17.1766 61.9658 17.4152 62.0946 17.616C62.2272 17.8167 62.3995 17.9853 62.6117 18.1217C62.8276 18.2542 63.0586 18.366 63.3048 18.4569C63.5511 18.544 63.7878 18.616 64.0151 18.6728L65.1514 18.9682C65.5226 19.0592 65.9033 19.1823 66.2935 19.3376C66.6836 19.4929 67.0454 19.6974 67.3787 19.9512C67.712 20.205 67.981 20.5194 68.1855 20.8944C68.3939 21.2694 68.498 21.7182 68.498 22.241C68.498 22.9001 68.3276 23.4853 67.9867 23.9967C67.6495 24.508 67.159 24.9114 66.5151 25.2069C65.8749 25.5023 65.1003 25.6501 64.1912 25.6501C63.32 25.6501 62.5662 25.5118 61.9298 25.2353C61.2935 24.9588 60.7954 24.5667 60.4355 24.0592C60.0757 23.5478 59.8768 22.9417 59.8389 22.241H61.6003C61.6344 22.6614 61.7708 23.0118 62.0094 23.2921C62.2518 23.5686 62.5605 23.7751 62.9355 23.9114C63.3143 24.044 63.7291 24.1103 64.1798 24.1103C64.6761 24.1103 65.1173 24.0326 65.5037 23.8773C65.8939 23.7182 66.2007 23.4985 66.4242 23.2182C66.6476 22.9342 66.7594 22.6027 66.7594 22.2239C66.7594 21.8792 66.6609 21.597 66.4639 21.3773C66.2708 21.1576 66.0075 20.9758 65.6742 20.8319C65.3446 20.6879 64.9715 20.561 64.5548 20.4512L63.1798 20.0762C62.248 19.8224 61.5094 19.4493 60.9639 18.9569C60.4223 18.4645 60.1514 17.8129 60.1514 17.0023C60.1514 16.3319 60.3333 15.7467 60.6969 15.2467C61.0605 14.7467 61.5529 14.3584 62.1742 14.0819C62.7954 13.8016 63.4961 13.6614 64.2764 13.6614C65.0643 13.6614 65.7594 13.7997 66.3617 14.0762C66.9677 14.3527 67.445 14.7334 67.7935 15.2182C68.142 15.6993 68.3238 16.2523 68.3389 16.8773H66.6458ZM70.0222 15.3319V13.8205H79.0279V15.3319H75.3972V25.4569H73.6472V15.3319H70.0222ZM80.6259 25.4569H78.7622L82.9497 13.8205H84.9781L89.1656 25.4569H87.302L84.0122 15.9342H83.9213L80.6259 25.4569ZM80.9384 20.9001H86.9838V22.3773H80.9384V20.9001ZM100.238 13.8205V25.4569H98.6244L92.7097 16.9228H92.6017V25.4569H90.846V13.8205H92.471L98.3915 22.366H98.4994V13.8205H100.238ZM112.464 17.6046H110.691C110.623 17.2258 110.496 16.8925 110.311 16.6046C110.125 16.3167 109.898 16.0724 109.629 15.8717C109.36 15.6709 109.059 15.5194 108.725 15.4171C108.396 15.3148 108.045 15.2637 107.674 15.2637C107.004 15.2637 106.403 15.4323 105.873 15.7694C105.347 16.1065 104.93 16.6008 104.623 17.2523C104.32 17.9038 104.168 18.6993 104.168 19.6387C104.168 20.5857 104.32 21.3849 104.623 22.0364C104.93 22.6879 105.348 23.1804 105.879 23.5137C106.409 23.847 107.006 24.0137 107.668 24.0137C108.036 24.0137 108.384 23.9645 108.714 23.866C109.047 23.7637 109.348 23.6141 109.617 23.4171C109.886 23.2201 110.114 22.9796 110.299 22.6955C110.489 22.4076 110.619 22.0781 110.691 21.7069L112.464 21.7126C112.369 22.2845 112.186 22.811 111.913 23.2921C111.644 23.7694 111.297 24.1823 110.873 24.5307C110.453 24.8754 109.972 25.1425 109.43 25.3319C108.888 25.5213 108.297 25.616 107.657 25.616C106.65 25.616 105.752 25.3773 104.964 24.9001C104.176 24.419 103.555 23.7315 103.1 22.8376C102.65 21.9436 102.424 20.8773 102.424 19.6387C102.424 18.3963 102.651 17.33 103.106 16.4398C103.561 15.5459 104.182 14.8603 104.97 14.383C105.757 13.902 106.653 13.6614 107.657 13.6614C108.275 13.6614 108.85 13.7504 109.384 13.9285C109.922 14.1027 110.405 14.3603 110.833 14.7012C111.261 15.0383 111.615 15.4512 111.896 15.9398C112.176 16.4247 112.365 16.9796 112.464 17.6046ZM114.565 25.4569V13.8205H121.86V15.3319H116.32V18.8773H121.48V20.383H116.32V23.9455H121.928V25.4569H114.565Z" fill="#FF5928"/>
</svg>
