<svg width="22" height="22" viewBox="0 0 22 22" fill="none" xmlns="http://www.w3.org/2000/svg">
<circle cx="11" cy="11" r="11" fill="#DBECF8"/>
<path d="M15.931 9.17119V10.3904C15.931 10.606 15.8438 10.8127 15.6886 10.9651C15.5334 11.1176 15.3229 11.2032 15.1034 11.2032H12.8276V15.8769C12.8276 16.0924 12.7404 16.2992 12.5852 16.4516C12.43 16.604 12.2195 16.6897 12 16.6897H10.7586C10.5391 16.6897 10.3286 16.604 10.1734 16.4516C10.0182 16.2992 9.93102 16.0924 9.93102 15.8769V11.2032H7.65516C7.43567 11.2032 7.22517 11.1176 7.06997 10.9651C6.91477 10.8127 6.82758 10.606 6.82758 10.3904V9.17119C6.82758 8.95562 6.91477 8.74888 7.06997 8.59644C7.22517 8.44401 7.43567 8.35838 7.65516 8.35838H9.93102V6.12316C9.93102 5.90759 10.0182 5.70085 10.1734 5.54841C10.3286 5.39598 10.5391 5.31035 10.7586 5.31035H12C12.2195 5.31035 12.43 5.39598 12.5852 5.54841C12.7404 5.70085 12.8276 5.90759 12.8276 6.12316V8.35838H15.1034C15.3229 8.35838 15.5334 8.44401 15.6886 8.59644C15.8438 8.74888 15.931 8.95562 15.931 9.17119Z" fill="#FF5928"/>
</svg>
