<svg width="117" height="121" viewBox="0 0 117 121" fill="none" xmlns="http://www.w3.org/2000/svg">
<path d="M116.5 61C116.5 93.8729 90.5207 120.5 58.5 120.5C26.4793 120.5 0.5 93.8729 0.5 61C0.5 28.127 26.4793 1.5 58.5 1.5C90.5207 1.5 116.5 28.127 116.5 61Z" fill="white" stroke="#FF5928"/>
<ellipse cx="58.5" cy="55" rx="53.5" ry="55" fill="#FF5928"/>
<path d="M51.8742 41.6172C51.7996 41.358 51.6949 41.1289 51.5599 40.93C51.425 40.7276 51.2599 40.5572 51.0645 40.4187C50.8728 40.2766 50.6526 40.1683 50.404 40.0938C50.159 40.0192 49.8873 39.9819 49.589 39.9819C49.0315 39.9819 48.5415 40.1204 48.1189 40.3974C47.6998 40.6744 47.3731 41.0774 47.1388 41.6065C46.9044 42.1321 46.7872 42.7749 46.7872 43.5348C46.7872 44.2947 46.9026 44.9411 47.1334 45.4737C47.3643 46.0064 47.691 46.413 48.1135 46.6935C48.5361 46.9705 49.0351 47.109 49.6104 47.109C50.1324 47.109 50.578 47.0167 50.9474 46.832C51.3202 46.6438 51.6043 46.3793 51.7996 46.0384C51.9985 45.6974 52.0979 45.2944 52.0979 44.8292L52.5667 44.8984H49.7542V43.1619H54.3192V44.5362C54.3192 45.495 54.1167 46.3189 53.7119 47.0078C53.3071 47.6932 52.7496 48.2223 52.0393 48.5952C51.3291 48.9645 50.5159 49.1491 49.5997 49.1491C48.577 49.1491 47.6785 48.9237 46.9044 48.4727C46.1302 48.0181 45.5265 47.3736 45.0933 46.5391C44.6636 45.701 44.4488 44.7067 44.4488 43.5561C44.4488 42.6719 44.5766 41.8835 44.8323 41.1911C45.0915 40.495 45.4537 39.9055 45.9189 39.4226C46.3841 38.9396 46.9257 38.5721 47.5436 38.32C48.1615 38.0678 48.8309 37.9418 49.5518 37.9418C50.1697 37.9418 50.7449 38.0323 51.2776 38.2134C51.8103 38.391 52.2826 38.6431 52.6945 38.9698C53.11 39.2965 53.4491 39.6854 53.7119 40.1364C53.9747 40.5838 54.1434 41.0774 54.218 41.6172H51.8742ZM56.0517 49V38.0909H63.4025V39.9925H58.3581V42.592H63.0243V44.4936H58.3581V47.0984H63.4238V49H56.0517ZM64.8208 39.9925V38.0909H73.7803V39.9925H70.4404V49H68.1606V39.9925H64.8208ZM31.0175 59.2283C30.9749 58.7987 30.792 58.4648 30.4688 58.2269C30.1457 57.989 29.7071 57.87 29.1531 57.87C28.7767 57.87 28.4589 57.9233 28.1997 58.0298C27.9404 58.1328 27.7416 58.2766 27.6031 58.4613C27.4681 58.646 27.4007 58.8555 27.4007 59.0898C27.3936 59.2852 27.4344 59.4556 27.5232 59.6012C27.6155 59.7468 27.7416 59.8729 27.9014 59.9794C28.0612 60.0824 28.2458 60.1729 28.4553 60.2511C28.6649 60.3256 28.8886 60.3896 29.1265 60.4428L30.1066 60.6772C30.5825 60.7837 31.0193 60.9258 31.417 61.1033C31.8147 61.2809 32.1592 61.4993 32.4504 61.7585C32.7416 62.0178 32.9671 62.3232 33.1269 62.6747C33.2902 63.0263 33.3737 63.4293 33.3772 63.8839C33.3737 64.5515 33.2032 65.1303 32.8659 65.6204C32.532 66.1069 32.0491 66.4851 31.417 66.755C30.7884 67.0213 30.0303 67.1545 29.1425 67.1545C28.2618 67.1545 27.4948 67.0195 26.8414 66.7496C26.1915 66.4798 25.6837 66.0803 25.3179 65.5511C24.9557 65.0185 24.7657 64.3597 24.748 63.5749H26.9798C27.0047 63.9407 27.1095 64.2461 27.2941 64.4911C27.4823 64.7326 27.7327 64.9155 28.0452 65.0398C28.3612 65.1605 28.7181 65.2209 29.1159 65.2209C29.5065 65.2209 29.8456 65.1641 30.1333 65.0504C30.4244 64.9368 30.6499 64.7788 30.8097 64.5763C30.9695 64.3739 31.0494 64.1413 31.0494 63.8786C31.0494 63.6335 30.9767 63.4276 30.8311 63.2607C30.689 63.0937 30.4795 62.9517 30.2025 62.8345C29.9291 62.7173 29.5935 62.6108 29.1958 62.5149L28.0079 62.2166C27.0882 61.9929 26.3619 61.6431 25.8293 61.1673C25.2966 60.6914 25.032 60.0504 25.0356 59.2443C25.032 58.5838 25.2078 58.0067 25.5629 57.5131C25.9216 57.0195 26.4134 56.6342 27.0384 56.3572C27.6634 56.0803 28.3737 55.9418 29.1691 55.9418C29.9788 55.9418 30.6855 56.0803 31.2892 56.3572C31.8964 56.6342 32.3687 57.0195 32.7061 57.5131C33.0434 58.0067 33.2174 58.5785 33.2281 59.2283H31.0175ZM34.5131 57.9925V56.0909H43.4727V57.9925H40.1328V67H37.853V57.9925H34.5131ZM45.4955 67H43.0239L46.7899 56.0909H49.7622L53.5228 67H51.0512L48.3186 58.5838H48.2334L45.4955 67ZM45.341 62.712H51.1791V64.5124H45.341V62.712ZM54.8358 67V56.0909H59.1398C59.9637 56.0909 60.6668 56.2383 61.2492 56.533C61.8351 56.8242 62.2808 57.2379 62.5862 57.7741C62.8952 58.3068 63.0496 58.9336 63.0496 59.6545C63.0496 60.3789 62.8934 61.0021 62.5809 61.5241C62.2684 62.0426 61.8156 62.4403 61.2226 62.7173C60.6331 62.9943 59.9193 63.1328 59.0812 63.1328H56.1995V61.2791H58.7084C59.1487 61.2791 59.5145 61.2187 59.8057 61.098C60.0969 60.9773 60.3135 60.7962 60.4555 60.5547C60.6011 60.3132 60.6739 60.0131 60.6739 59.6545C60.6739 59.2923 60.6011 58.9869 60.4555 58.7383C60.3135 58.4897 60.0951 58.3015 59.8003 58.1737C59.5091 58.0423 59.1416 57.9766 58.6977 57.9766H57.1423V67H54.8358ZM60.7272 62.0355L63.4385 67H60.8923L58.2396 62.0355H60.7272ZM64.2641 57.9925V56.0909H73.2236V57.9925H69.8838V67H67.604V57.9925H64.2641ZM74.6991 67V56.0909H82.05V57.9925H77.0056V60.592H81.6718V62.4936H77.0056V65.0984H82.0713V67H74.6991ZM87.7509 67H83.8837V56.0909H87.7828C88.8801 56.0909 89.8248 56.3093 90.6167 56.7461C91.4086 57.1793 92.0176 57.8026 92.4437 58.6158C92.8734 59.429 93.0882 60.402 93.0882 61.5348C93.0882 62.6712 92.8734 63.6477 92.4437 64.4645C92.0176 65.2812 91.405 65.908 90.606 66.3448C89.8105 66.7816 88.8588 67 87.7509 67ZM86.1902 65.0238H87.655C88.3368 65.0238 88.9103 64.9031 89.3755 64.6616C89.8443 64.4165 90.1958 64.0384 90.4302 63.527C90.6681 63.0121 90.7871 62.348 90.7871 61.5348C90.7871 60.7287 90.6681 60.07 90.4302 59.5586C90.1958 59.0472 89.8461 58.6708 89.3809 58.4293C88.9157 58.1879 88.3422 58.0671 87.6603 58.0671H86.1902V65.0238Z" fill="white"/>
</svg>
