<svg width="34" height="34" viewBox="0 0 34 34" fill="none" xmlns="http://www.w3.org/2000/svg">
<circle cx="17" cy="17" r="17" fill="#DBECF8"/>
<path d="M23.4482 17C23.4487 17.199 23.3977 17.3948 23.3001 17.5683C23.2025 17.7417 23.0617 17.887 22.8913 17.9899L12.3338 24.4481C12.1558 24.5571 11.9519 24.6166 11.7432 24.6205C11.5345 24.6243 11.3286 24.5724 11.1467 24.4701C10.9665 24.3694 10.8164 24.2225 10.7119 24.0445C10.6073 23.8665 10.552 23.6639 10.5517 23.4575V10.5425C10.552 10.3361 10.6073 10.1335 10.7119 9.95549C10.8164 9.77752 10.9665 9.63061 11.1467 9.52988C11.3286 9.42755 11.5345 9.37564 11.7432 9.3795C11.9519 9.38337 12.1558 9.44287 12.3338 9.55186L22.8913 16.0101C23.0617 16.113 23.2025 16.2583 23.3001 16.4317C23.3977 16.6052 23.4487 16.801 23.4482 17Z" fill="#FF5928"/>
</svg>
