<svg width="26" height="27" viewBox="0 0 26 27" fill="none" xmlns="http://www.w3.org/2000/svg">
<ellipse cx="13" cy="13.4333" rx="13" ry="13.4333" fill="#DDECF8"/>
<path fill-rule="evenodd" clip-rule="evenodd" d="M7.3665 6.63347C8.00176 6.25647 8.75403 6.06667 9.61116 6.06667C10.457 6.06667 11.1781 6.49393 11.6756 6.7886C12.0968 7.03993 12.5682 7.36667 13.0778 7.36667C13.5874 7.36667 14.0589 7.03907 14.4801 6.7886C14.9784 6.4948 15.6995 6.06667 16.5445 6.06667C17.4025 6.06667 18.1548 6.25647 18.7892 6.63347C19.4236 7.01047 19.8924 7.54693 20.2244 8.16573C20.8744 9.3756 21.0217 10.9321 20.9324 12.4471C20.8414 13.9854 20.4991 15.5939 20.0649 16.9927C19.6333 18.3803 19.0908 19.6257 18.5656 20.4143C17.9624 21.3183 17.1243 21.7681 16.236 21.6433C15.4204 21.5289 14.7869 20.956 14.4697 20.3207C14.1308 19.643 13.974 18.8864 13.6767 18.1905C13.5294 17.8473 13.3881 17.6046 13.2564 17.4581C13.1177 17.3056 13.0336 17.3099 12.9002 17.4581C12.7676 17.6046 12.6263 17.8473 12.479 18.1905C12.1817 18.8864 12.0257 19.643 11.6868 20.3207C11.3688 20.956 10.7352 21.5289 9.92056 21.6433C9.03136 21.7681 8.1933 21.3183 7.5901 20.4143C7.0649 19.6257 6.52236 18.3803 6.09076 16.9927C5.65656 15.5939 5.31423 13.9854 5.2241 12.4479C5.13396 10.9313 5.2813 9.3756 5.9313 8.16573C6.26323 7.54693 6.7321 7.01047 7.3665 6.63347Z" fill="#FF5928"/>
</svg>
