<svg width="25" height="26" viewBox="0 0 25 26" fill="none" xmlns="http://www.w3.org/2000/svg">
<ellipse cx="12.5" cy="12.9167" rx="12.5" ry="12.9167" fill="#DDECF8"/>
<path fill-rule="evenodd" clip-rule="evenodd" d="M12.9162 17.6389L14.4785 6.87929C14.5004 6.74991 14.4912 6.6172 14.4517 6.49206C14.4111 6.36422 14.3419 6.24729 14.2495 6.1501C14.1535 6.0492 14.0374 5.96957 13.9087 5.91635C13.7765 5.86139 13.6347 5.83317 13.4915 5.83331H6.83243C6.6884 5.83331 6.54595 5.86165 6.4153 5.91595C6.28643 5.96925 6.1702 6.04902 6.07412 6.1501C5.98166 6.24729 5.91249 6.36422 5.87185 6.49206C5.8325 6.61799 5.82305 6.75021 5.8447 6.87929L7.40696 17.6389V18.6227C7.40696 18.9827 7.5443 19.3314 7.7934 19.5907C7.91618 19.7196 8.06378 19.8223 8.22731 19.8927C8.39084 19.963 8.56691 19.9995 8.74493 20H11.5783C11.9383 20 12.2803 19.8504 12.5298 19.5907C12.7786 19.3299 12.917 18.9831 12.9162 18.6227V17.6389ZM10.5913 9.49776C10.5913 9.39339 10.5499 9.2933 10.4761 9.2195C10.4023 9.1457 10.3022 9.10424 10.1978 9.10424C10.0934 9.10424 9.99334 9.1457 9.91954 9.2195C9.84574 9.2933 9.80428 9.39339 9.80428 9.49776V10.8881H8.38132C8.27695 10.8881 8.17686 10.9295 8.10306 11.0033C8.02926 11.0771 7.9878 11.1772 7.9878 11.2816C7.9878 11.3859 8.02926 11.486 8.10306 11.5598C8.17686 11.6336 8.27695 11.6751 8.38132 11.6751H9.80428V13.0654C9.80428 13.1698 9.84574 13.2699 9.91954 13.3437C9.99334 13.4175 10.0934 13.4589 10.1978 13.4589C10.3022 13.4589 10.4023 13.4175 10.4761 13.3437C10.5499 13.2699 10.5913 13.1698 10.5913 13.0654V11.6751H12.0139C12.1183 11.6751 12.2183 11.6336 12.2921 11.5598C12.3659 11.486 12.4074 11.3859 12.4074 11.2816C12.4074 11.1772 12.3659 11.0771 12.2921 11.0033C12.2183 10.9295 12.1183 10.8881 12.0139 10.8881H10.5913V9.49776ZM11.9623 19.0457C12.0674 18.9363 12.1292 18.7844 12.1292 18.6227V18.0324H8.194V18.6227C8.194 18.784 8.25578 18.9363 8.36085 19.0457C8.46553 19.1547 8.60405 19.2129 8.74493 19.2129H11.5783C11.7191 19.2129 11.8577 19.1547 11.9623 19.0457Z" fill="#FF5928"/>
<path d="M19.9996 6.22683C19.9996 6.12246 19.9581 6.02237 19.8843 5.94857C19.8105 5.87477 19.7104 5.83331 19.6061 5.83331C19.5017 5.83331 19.4016 5.87477 19.3278 5.94857C19.254 6.02237 19.2126 6.12246 19.2126 6.22683H16.8514V7.01387H19.2126V7.80091H16.8514V8.58794H19.2126V9.37498H16.8514V10.162H19.2126V10.9459L17.7341 12.6597C17.6725 12.7311 17.6385 12.8223 17.6385 12.9166V19.6065C17.6385 19.7108 17.6799 19.8109 17.7537 19.8847C17.8275 19.9585 17.9276 20 18.032 20C18.1364 20 18.2365 19.9585 18.3103 19.8847C18.3841 19.8109 18.4255 19.7108 18.4255 19.6065V13.063L19.904 11.3493C19.9656 11.2778 19.9995 11.1866 19.9996 11.0923V6.22683Z" fill="#FF5928"/>
</svg>
