<svg width="72" height="72" viewBox="0 0 72 72" fill="none" xmlns="http://www.w3.org/2000/svg">
<circle cx="36" cy="36" r="36" fill="#DBECF8"/>
<g clip-path="url(#clip0_1477_54)">
<path fill-rule="evenodd" clip-rule="evenodd" d="M30.1216 18.2566C31.3658 17.0127 32.9467 16.1598 34.6695 15.803C36.3924 15.4462 38.1819 15.6011 39.8179 16.2485C41.4538 16.8959 42.8647 18.0076 43.8768 19.4467C44.8889 20.8858 45.4581 22.5895 45.5142 24.348C47.7505 23.7034 50.1497 23.9511 52.2071 25.0391C54.2645 26.1271 55.8199 27.9705 56.5461 30.1817C57.2634 32.386 57.0963 34.7857 56.08 36.8692C55.0637 38.9526 53.2777 40.5597 51.0989 41.3513C52.3911 43.2731 52.8836 45.6227 52.4719 47.9017C52.0602 50.1806 50.7767 52.2094 48.8937 53.5576C47.0073 54.9199 44.6686 55.5032 42.3634 55.1864C40.0581 54.8695 37.9635 53.6769 36.5147 51.8561C35.6124 52.9912 34.4505 53.8929 33.127 54.4852C31.8034 55.0775 30.3569 55.3431 28.9093 55.2596C27.4616 55.176 26.0553 54.7458 24.8086 54.0052C23.562 53.2646 22.5116 52.2352 21.7459 51.0039C20.845 49.5491 20.3825 47.8655 20.4136 46.1546C20.4448 44.4438 20.9683 42.7782 21.9216 41.3571C19.7473 40.5528 17.9689 38.9376 16.9597 36.8505C15.9505 34.7633 15.7889 32.3664 16.5087 30.1627C17.2285 27.9589 18.7738 26.1195 20.8205 25.0305C22.8671 23.9415 25.256 23.6874 27.4859 24.3216C27.5657 22.0402 28.5075 19.8739 30.1216 18.2595V18.2566ZM42.9575 36.2614C42.9575 39.805 40.067 42.675 36.5 42.675C34.7933 42.6804 33.1543 42.0079 31.9434 40.8052C30.7325 39.6025 30.0487 37.9681 30.0425 36.2614C30.0425 32.7179 32.933 29.8479 36.5 29.8479C40.067 29.8479 42.9575 32.7179 42.9575 36.2614Z" fill="#FF5928"/>
</g>
<defs>
<clipPath id="clip0_1477_54">
<rect width="41" height="41" fill="white" transform="translate(16 15)"/>
</clipPath>
</defs>
</svg>
