<svg width="42" height="44" viewBox="0 0 42 44" fill="none" xmlns="http://www.w3.org/2000/svg">
<ellipse cx="21" cy="21.7" rx="21" ry="21.7" fill="#DDECF8"/>
<path fill-rule="evenodd" clip-rule="evenodd" d="M21.6993 29.6333L24.3239 11.5572C24.3606 11.3398 24.3452 11.1169 24.2789 10.9067C24.2106 10.6919 24.0944 10.4954 23.9391 10.3322C23.7778 10.1627 23.5828 10.0289 23.3666 9.93945C23.1445 9.84712 22.9063 9.79971 22.6658 9.79996H11.4785C11.2365 9.79996 10.9972 9.84756 10.7777 9.93879C10.5612 10.0283 10.3659 10.1624 10.2045 10.3322C10.0492 10.4954 9.93299 10.6919 9.86471 10.9067C9.79859 11.1182 9.78273 11.3403 9.81909 11.5572L12.4437 29.6333V31.2861C12.4437 31.891 12.6744 32.4767 13.0929 32.9124C13.2992 33.1289 13.5472 33.3015 13.8219 33.4197C14.0966 33.5378 14.3924 33.5991 14.6915 33.6H19.4515C20.0564 33.6 20.6309 33.3487 21.05 32.9124C21.468 32.4742 21.7006 31.8916 21.6993 31.2861V29.6333ZM17.7934 15.9562C17.7934 15.7809 17.7238 15.6127 17.5998 15.4887C17.4758 15.3648 17.3076 15.2951 17.1323 15.2951C16.957 15.2951 16.7888 15.3648 16.6648 15.4887C16.5408 15.6127 16.4712 15.7809 16.4712 15.9562V18.2919H14.0806C13.9053 18.2919 13.7371 18.3616 13.6131 18.4856C13.4892 18.6095 13.4195 18.7777 13.4195 18.953C13.4195 19.1284 13.4892 19.2965 13.6131 19.4205C13.7371 19.5445 13.9053 19.6142 14.0806 19.6142H16.4712V21.9499C16.4712 22.1252 16.5408 22.2934 16.6648 22.4173C16.7888 22.5413 16.957 22.611 17.1323 22.611C17.3076 22.611 17.4758 22.5413 17.5998 22.4173C17.7238 22.2934 17.7934 22.1252 17.7934 21.9499V19.6142H20.1833C20.3587 19.6142 20.5268 19.5445 20.6508 19.4205C20.7748 19.2965 20.8444 19.1284 20.8444 18.953C20.8444 18.7777 20.7748 18.6095 20.6508 18.4856C20.5268 18.3616 20.3587 18.2919 20.1833 18.2919H17.7934V15.9562ZM20.0967 31.9968C20.2732 31.813 20.377 31.5578 20.377 31.2861V30.2944H13.7659V31.2861C13.7659 31.5571 13.8697 31.813 14.0462 31.9968C14.2221 32.1799 14.4548 32.2777 14.6915 32.2777H19.4515C19.6882 32.2777 19.9209 32.1799 20.0967 31.9968Z" fill="#FF5928"/>
<path d="M33.5993 10.4611C33.5993 10.2857 33.5297 10.1176 33.4057 9.99359C33.2817 9.86961 33.1135 9.79996 32.9382 9.79996C32.7629 9.79996 32.5947 9.86961 32.4707 9.99359C32.3467 10.1176 32.2771 10.2857 32.2771 10.4611H28.3104V11.7833H32.2771V13.1055H28.3104V14.4277H32.2771V15.75H28.3104V17.0722H32.2771V18.3891L29.7933 21.2683C29.6897 21.3882 29.6327 21.5414 29.6326 21.7V32.9388C29.6326 33.1142 29.7023 33.2823 29.8263 33.4063C29.9503 33.5303 30.1184 33.6 30.2938 33.6C30.4691 33.6 30.6373 33.5303 30.7612 33.4063C30.8852 33.2823 30.9549 33.1142 30.9549 32.9388V21.9459L33.4387 19.0668C33.5422 18.9468 33.5992 18.7936 33.5993 18.635V10.4611Z" fill="#FF5928"/>
</svg>
