<svg width="42" height="44" viewBox="0 0 42 44" fill="none" xmlns="http://www.w3.org/2000/svg">
<ellipse cx="21" cy="21.7" rx="21" ry="21.7" fill="#DDECF8"/>
<path fill-rule="evenodd" clip-rule="evenodd" d="M11.8997 10.7156C12.9259 10.1066 14.1411 9.79999 15.5257 9.79999C16.8921 9.79999 18.0569 10.4902 18.8605 10.9662C19.5409 11.3722 20.3025 11.9 21.1257 11.9C21.9489 11.9 22.7105 11.3708 23.3909 10.9662C24.1959 10.4916 25.3607 9.79999 26.7257 9.79999C28.1117 9.79999 29.3269 10.1066 30.3517 10.7156C31.3765 11.3246 32.1339 12.1912 32.6701 13.1908C33.7201 15.1452 33.9581 17.6596 33.8139 20.1068C33.6669 22.5918 33.1139 25.1902 32.4125 27.4498C31.7153 29.6912 30.8389 31.703 29.9905 32.977C29.0161 34.4372 27.6623 35.1638 26.2273 34.9622C24.9099 34.7774 23.8865 33.852 23.3741 32.8258C22.8267 31.731 22.5733 30.5088 22.0931 29.3846C21.8551 28.8302 21.6269 28.4382 21.4141 28.2016C21.1901 27.9552 21.0543 27.9622 20.8387 28.2016C20.6245 28.4382 20.3963 28.8302 20.1583 29.3846C19.6781 30.5088 19.4261 31.731 18.8787 32.8258C18.3649 33.852 17.3415 34.7774 16.0255 34.9622C14.5891 35.1638 13.2353 34.4372 12.2609 32.977C11.4125 31.703 10.5361 29.6912 9.83893 27.4498C9.13753 25.1902 8.58453 22.5918 8.43893 20.1082C8.29333 17.6582 8.53133 15.1452 9.58133 13.1908C10.1175 12.1912 10.8749 11.3246 11.8997 10.7156Z" fill="#FF5928"/>
</svg>
